<svg xmlns="http://www.w3.org/2000/svg" xmlns:xlink="http://www.w3.org/1999/xlink" viewBox="0 0 300 300">
  <defs>
    <style>
      .cls-1 {
        clip-path: url(#clip-Key_-_Light_4);
      }

      .cls-2 {
        fill: #eee;
      }
    </style>
    <clipPath id="clip-Key_-_Light_4">
      <rect width="300" height="300"/>
    </clipPath>
  </defs>
  <g id="Key_-_Light_4" data-name="Key - Light – 4" class="cls-1">
    <path id="Exclusion_1" data-name="Exclusion 1" class="cls-2" d="M51.778,103.556A51.792,51.792,0,0,1,31.624,4.069,51.791,51.791,0,0,1,71.932,99.487,51.455,51.455,0,0,1,51.778,103.556Zm.977-84.017A33.216,33.216,0,1,0,85.971,52.755,33.254,33.254,0,0,0,52.755,19.539Z" transform="translate(8.469 77.702)"/>
    <rect id="Rectangle_1" data-name="Rectangle 1" class="cls-2" width="19.539" height="193.435" rx="9.769" transform="translate(287.874 120.688) rotate(90)"/>
    <rect id="Rectangle_2" data-name="Rectangle 2" class="cls-2" width="19.539" height="78.155" rx="9.769" transform="translate(287.851 198.82) rotate(180)"/>
    <rect id="Rectangle_3" data-name="Rectangle 3" class="cls-2" width="19.539" height="60.57" rx="9.769" transform="translate(253.681 181.235) rotate(180)"/>
  </g>
</svg>
